<?xml version="1.0" encoding="UTF-8"?>
<svg width="14px" height="14px" viewBox="0 0 14 14" version="1.1" xmlns="http://www.w3.org/2000/svg" xmlns:xlink="http://www.w3.org/1999/xlink">
    <title>exclamation-octagon</title>
    <g id="参与" stroke="none" stroke-width="1" fill="none" fill-rule="evenodd">
        <g id="follow-list-web" transform="translate(-50.000000, -93.000000)" fill="#FFFFFF" fill-rule="nonzero">
            <g id="提示条" transform="translate(0.000000, 80.000000)">
                <g id="exclamation-octagon" transform="translate(50.000000, 13.000000)">
                    <path d="M9.718625,0 C9.8344334,0 9.94550766,0.0459646657 10.0275,0.12775 L13.87225,3.9725 C13.9540353,4.05449234 14,4.1655666 14,4.281375 L14,9.718625 C14,9.8344334 13.9540353,9.94550766 13.87225,10.0275 L10.0275,13.87225 C9.94550766,13.9540353 9.8344334,14 9.718625,14 L4.281375,14 C4.1655666,14 4.05449234,13.9540353 3.9725,13.87225 L0.12775,10.0275 C0.0459646657,9.94550766 0,9.8344334 0,9.718625 L0,4.281375 C0,4.1655666 0.0459646657,4.05449234 0.12775,3.9725 L3.9725,0.12775 C4.05449234,0.0459646657 4.1655666,0 4.281375,0 L9.718625,0 Z M9.5375,0.875 L4.4625,0.875 L0.875,4.4625 L0.875,9.5375 L4.4625,13.125 L9.5375,13.125 L13.125,9.5375 L13.125,4.4625 L9.5375,0.875 Z M7.5,9.1339746 C7.80940109,9.3126074 8,9.64273442 8,10 C8,10.5522848 7.55228475,11 7,11 C6.44771525,11 6,10.5522848 6,10 C6,9.64273442 6.19059891,9.3126074 6.5,9.1339746 C6.80940107,8.9553418 7.19059893,8.9553418 7.5,9.1339746 Z M7.53003601,3.13725696 C7.85432296,3.32026624 8.0346018,3.6542318 7.99445745,3.99759515 L7.607724,7.49616135 C7.58078497,7.78109871 7.31674892,8 7,8 C6.68325108,8 6.41921503,7.78109871 6.392276,7.49616135 L6.00554255,3.99759515 C5.9653982,3.6542318 6.14567704,3.32026624 6.46996399,3.13725696 C6.79425094,2.95424768 7.20574906,2.95424768 7.53003601,3.13725696 Z" id="形状结合"></path>
                </g>
            </g>
        </g>
    </g>
</svg>