<?xml version="1.0" encoding="UTF-8"?>
<svg width="372px" height="221px" viewBox="0 0 372 221" version="1.1" xmlns="http://www.w3.org/2000/svg" xmlns:xlink="http://www.w3.org/1999/xlink">
    <title>右边</title>
    <g id="第一版" stroke="none" stroke-width="1" fill="none" fill-rule="evenodd">
        <g id="交易对" transform="translate(-998.000000, -85.000000)">
            <g id="右边" transform="translate(998.000000, 88.000000)">
                <line x1="364" y1="0" x2="364" y2="210" id="直线-2" stroke="#85858D" stroke-width="6" opacity="0.5" stroke-linecap="round" stroke-linejoin="round" stroke-dasharray="0,20" transform="translate(364.000000, 105.000000) scale(1, -1) translate(-364.000000, -105.000000) "></line>
                <line x1="328" y1="60" x2="328" y2="209.999794" id="直线-2" stroke="#85858D" stroke-width="6" opacity="0.5" stroke-linecap="round" stroke-linejoin="round" stroke-dasharray="0,20" transform="translate(328.000000, 134.999897) scale(1, -1) translate(-328.000000, -134.999897) "></line>
                <line x1="292" y1="79.9997941" x2="292" y2="209.999588" id="直线-2" stroke="#85858D" stroke-width="6" opacity="0.300000012" stroke-linecap="round" stroke-linejoin="round" stroke-dasharray="0,20" transform="translate(292.000000, 144.999794) scale(1, -1) translate(-292.000000, -144.999794) "></line>
                <line x1="256" y1="19.9997941" x2="256" y2="209.999588" id="直线-2" stroke="#85858D" stroke-width="6" opacity="0.5" stroke-linecap="round" stroke-linejoin="round" stroke-dasharray="0,20" transform="translate(256.000000, 114.999794) scale(1, -1) translate(-256.000000, -114.999794) "></line>
                <line x1="220" y1="100.999794" x2="220" y2="209.999588" id="直线-2" stroke="#85858D" stroke-width="6" opacity="0.5" stroke-linecap="round" stroke-linejoin="round" stroke-dasharray="0,20" transform="translate(220.000000, 155.499794) scale(1, -1) translate(-220.000000, -155.499794) "></line>
                <line x1="148" y1="118.999794" x2="148" y2="209.999588" id="直线-2" stroke="#85858D" stroke-width="6" opacity="0.5" stroke-linecap="round" stroke-linejoin="round" stroke-dasharray="0,20" transform="translate(148.000000, 164.499794) scale(1, -1) translate(-148.000000, -164.499794) "></line>
                <line x1="76" y1="137.999794" x2="76" y2="209.999588" id="直线-2" stroke="#85858D" stroke-width="6" opacity="0.5" stroke-linecap="round" stroke-linejoin="round" stroke-dasharray="0,20" transform="translate(76.000000, 173.999794) scale(1, -1) translate(-76.000000, -173.999794) "></line>
                <line x1="112" y1="181.999794" x2="112" y2="209.999588" id="直线-2" stroke="#85858D" stroke-width="6" opacity="0.5" stroke-linecap="round" stroke-linejoin="round" stroke-dasharray="0,20" transform="translate(112.000000, 195.999794) scale(1, -1) translate(-112.000000, -195.999794) "></line>
                <line x1="4" y1="181.999794" x2="4" y2="209.999588" id="直线-2" stroke="#85858D" stroke-width="6" opacity="0.300000012" stroke-linecap="round" stroke-linejoin="round" stroke-dasharray="0,20" transform="translate(4.000000, 195.999794) scale(1, -1) translate(-4.000000, -195.999794) "></line>
                <line x1="184" y1="81.9997941" x2="184" y2="209.999588" id="直线-2" stroke="#85858D" stroke-width="6" opacity="0.300000012" stroke-linecap="round" stroke-linejoin="round" stroke-dasharray="0,20" transform="translate(184.000000, 145.999794) scale(1, -1) translate(-184.000000, -145.999794) "></line>
                <rect id="矩形" x="0" y="198" width="372" height="20"></rect>
            </g>
        </g>
    </g>
</svg>